<mxfile host="app.diagrams.net" modified="2023-11-21T01:25:02.898Z" agent="Mozilla/5.0 (X11; Linux x86_64) AppleWebKit/537.36 (KHTML, like Gecko) Chrome/117.0.0.0 Safari/537.36" version="21.8.0" etag="OBON0M6pg-rgFfY8JYB9" type="github">
  <diagram name="Page-1" id="Y2VnL1YDTqgYniCYTL3A">
    <mxGraphModel>
      <root>
        <mxCell id="0" />
        <mxCell id="1" parent="0" />
      </root>
    </mxGraphModel>
  </diagram>
</mxfile>
